<svg width="84" height="84" viewBox="0 0 84 84" fill="none" xmlns="http://www.w3.org/2000/svg">
<circle cx="42" cy="42" r="42" fill="white"/>
<path d="M55.7397 37.6538C55.3912 34.4347 53.3733 31.7163 50.4566 30.5717C47.5398 29.4271 44.2195 30.0352 41.8715 32.0918C40.4589 30.8578 38.6245 30.1246 36.7167 30.0352C34.442 29.9278 32.2957 30.6969 30.6631 32.217C29.1405 33.6299 28.2049 35.5793 28.0215 37.6896C27.9298 38.7448 28.0398 39.7999 28.3884 40.9266L14.1532 40.8909C13.768 40.8909 13.4561 41.0697 13.2727 41.3737C13.0709 41.7135 13.0709 42.1428 13.2727 42.4826C13.4561 42.7866 13.768 42.9654 14.1532 42.9654L29.8926 43.0012C30.2595 43.0012 30.553 42.8402 30.7365 42.572C30.9382 42.2679 30.9749 41.8387 30.8098 41.481C29.5808 38.709 30.0394 35.776 32.0022 33.8445C33.2129 32.6641 34.8089 32.0561 36.4782 32.1097C38.2393 32.1634 39.927 32.9682 41.101 34.2916C41.2844 34.4883 41.5596 34.6135 41.8715 34.6135C42.1833 34.6135 42.4585 34.5062 42.6419 34.2916C44.458 32.2528 47.1913 31.5374 49.6494 32.4674C51.8141 33.2901 53.3733 35.3468 53.6301 37.7075C53.7035 38.3871 54.3272 38.7269 54.8959 38.6732C55.4462 38.6017 55.7948 38.1903 55.7397 37.6538Z" fill="#2A2A2A"/>
<path d="M10.5579 50.9239H8.0264C7.71455 50.9239 7.47607 50.6735 7.47607 50.3874V33.3616C7.47607 33.0576 7.7329 32.8251 8.0264 32.8251H10.5763C10.8881 32.8251 11.1266 33.0755 11.1266 33.3616V50.3874C11.1082 50.6735 10.8698 50.9239 10.5579 50.9239Z" fill="#2A2A2A"/>
<path d="M6.11853 48.7957H3.55033C3.25682 48.7957 3 48.5632 3 48.2591V35.4362C3 35.15 3.23848 34.8996 3.55033 34.8996H6.11853C6.41204 34.8996 6.66886 35.1321 6.66886 35.4362V48.2591C6.66886 48.5632 6.43039 48.7957 6.11853 48.7957Z" fill="#2A2A2A"/>
<path d="M14.9972 52.766H12.4656C12.1538 52.766 11.897 52.5156 11.897 52.2116V31.5016C11.897 31.1976 12.1538 30.9472 12.4656 30.9472H14.9972C15.309 30.9472 15.5658 31.1976 15.5658 31.5016V52.2294C15.5658 52.5335 15.309 52.766 14.9972 52.766Z" fill="#2A2A2A"/>
<path d="M69.7181 41.3738C69.5347 41.0697 69.2228 40.8909 68.8376 40.8909L53.9237 40.9267C53.5935 40.9267 53.1532 41.1055 52.9881 41.4632C51.3004 45.1116 47.8884 47.8478 45.4486 49.6005C44.3663 50.3695 43.284 51.0849 42.2016 51.7287L42.0916 51.7824C41.9265 51.8718 41.9265 51.8718 41.7797 51.8181C41.3578 51.6572 40.9359 51.371 40.5323 51.1028C40.3672 50.9955 40.2021 50.8882 40.0554 50.7809C38.9547 50.0834 38.0008 49.4217 37.1203 48.7599C35.3776 47.4186 33.9467 46.0773 32.736 44.6108C32.3874 44.1816 31.8371 44.1279 31.3968 44.4677C30.9566 44.8075 30.7548 45.4871 31.1951 46.0237C32.3691 47.4365 33.7633 48.7778 35.4693 50.1013C36.4599 50.8703 37.5055 51.6214 38.5878 52.3189C39.1381 52.6766 39.7252 53.0343 40.3305 53.392L40.4589 53.4635C40.8809 53.7139 41.3578 54 41.9265 54C42.0365 54 42.165 53.9821 42.2934 53.9642C42.752 53.8569 43.1922 53.5708 43.5958 53.3204C43.7059 53.2489 43.7976 53.1773 43.9077 53.1237C44.5497 52.7302 45.1918 52.301 45.8338 51.8718C47.6316 50.6378 49.1541 49.4217 50.5116 48.1519C52.3644 46.3992 53.7035 44.7002 54.6024 43.0012L68.8376 42.9655C69.2228 42.9655 69.5347 42.7866 69.7181 42.4826C69.9199 42.1428 69.9199 41.7136 69.7181 41.3738Z" fill="#FBF138"/>
<path d="M73.4419 50.9239H75.9918C76.3036 50.9239 76.5421 50.6735 76.5421 50.3874V33.3616C76.5421 33.0576 76.2853 32.8251 75.9918 32.8251H73.4419C73.1301 32.8251 72.8916 33.0754 72.8916 33.3616V50.3874C72.8916 50.6735 73.1301 50.9239 73.4419 50.9239Z" fill="#FBF138"/>
<path d="M77.8814 48.7957H80.4496C80.7431 48.7957 80.9999 48.5632 80.9999 48.2592V35.4362C80.9999 35.1501 80.7614 34.8997 80.4496 34.8997H77.8814C77.5879 34.8997 77.3311 35.1322 77.3311 35.4362V48.2592C77.3311 48.5632 77.5695 48.7957 77.8814 48.7957Z" fill="#FBF138"/>
<path d="M69.0028 52.766H71.5343C71.8461 52.766 72.1029 52.5156 72.1029 52.2116V31.5016C72.1029 31.1976 71.8461 30.9472 71.5343 30.9472H69.0028C68.6909 30.9472 68.4341 31.1976 68.4341 31.5016V52.2294C68.4341 52.5335 68.6909 52.766 69.0028 52.766Z" fill="#FBF138"/>
</svg>
